<svg width="162" height="48" viewBox="0 0 162 48" fill="none" xmlns="http://www.w3.org/2000/svg">
<path d="M6.58032 6.25028C8.91879 4.80735 10.8469 3.65041 12.7685 2.42847C12.9955 2.2443 13.2597 2.11121 13.543 2.0383C13.8263 1.96538 14.122 1.95436 14.41 2.00599C17.0155 2.65596 19.7969 3.05894 22.2917 4.07289C24.0524 4.72159 25.5677 5.89983 26.6283 7.44486C27.689 8.98989 28.2426 10.8254 28.2128 12.698C28.3561 21.1475 28.2584 29.5646 28.2714 38.0012C28.3228 38.283 28.2881 38.5737 28.172 38.8356C28.0558 39.0975 27.8636 39.3185 27.62 39.4701C25.5161 40.7051 23.4577 42.0115 21.1518 43.4284C21.1518 34.7839 21.1518 26.4318 21.1518 18.0797C21.154 17.2505 21.0733 16.4231 20.9108 15.6098C20.0705 11.528 17.5236 9.00615 13.5501 7.9272C11.368 7.30323 9.12724 6.84825 6.58032 6.25028Z" fill="#212B31"/>
<path d="M21.0562 43.1577C18.7117 44.6541 16.8565 45.8525 14.9822 47.0444C14.6811 47.2755 14.3104 47.3923 13.9339 47.3748C10.7571 46.5845 7.37063 46.4355 4.51788 44.6217C3.18126 43.8524 2.06668 42.7381 1.28602 41.3907C0.505369 40.0433 0.0861265 38.5103 0.0703832 36.9454C-0.043981 28.4854 0.0703818 20.0253 0.00684611 11.5588C-0.0237862 11.2102 0.0488448 10.8603 0.215347 10.5543C0.381849 10.2483 0.634565 10.0002 0.940821 9.84218C2.45932 8.92881 3.97147 7.996 5.45185 7.01785C6.65903 6.23403 6.97671 6.49314 6.97036 7.87292C6.93859 15.6917 6.97036 23.5039 6.97036 31.3227C6.97036 36.9066 9.85487 40.4759 15.23 41.6872C17.009 42.0694 18.7308 42.5682 21.0562 43.1577Z" fill="#DF7A20"/>
<path d="M5.91988 2.74147C5.92596 3.08338 5.86117 3.42284 5.72957 3.73852C5.59798 4.05419 5.40242 4.33925 5.15521 4.57575C4.90799 4.81224 4.61447 4.99507 4.2931 5.11273C3.97173 5.23039 3.62947 5.28033 3.28785 5.25941C2.76262 5.25894 2.24955 5.10147 1.81462 4.80727C1.3797 4.51306 1.04282 4.09558 0.847324 3.60852C0.651826 3.12146 0.606648 2.5871 0.717605 2.07417C0.828561 1.56125 1.09058 1.09322 1.46994 0.730299C1.84931 0.367375 2.32868 0.126153 2.84639 0.0376612C3.3641 -0.0508307 3.89647 0.0174551 4.37501 0.233736C4.85356 0.450017 5.25639 0.804401 5.5317 1.2513C5.80701 1.6982 5.9422 2.21718 5.91988 2.74147Z" fill="#DF7A20"/>
<path d="M53.8313 38.7189C43.9512 38.7189 40.0908 33.1804 40.0908 26.8553C40.0908 20.5301 43.9512 14.9916 53.8313 14.9916C63.7113 14.9916 67.5717 20.5301 67.5717 26.8553C67.5717 33.1804 63.7113 38.7189 53.8313 38.7189ZM53.8313 35.1944C59.3274 35.1944 62.4681 31.7958 62.4681 26.8553C62.4681 21.9147 59.3274 18.5161 53.8313 18.5161C48.3351 18.5161 45.1944 21.9147 45.1944 26.8553C45.1944 31.7958 48.3351 35.1944 53.8313 35.1944Z" fill="#212B31"/>
<path d="M71.0477 38.0895V15.621L85.835 15.621C91.7892 15.621 93.7194 18.2329 93.7194 21.7259C93.7194 24.6525 92.0509 26.4777 89.859 27.1385V27.2014C92.6398 27.7679 93.2614 30.0965 93.2614 33.2749C93.2614 34.3448 93.2941 36.8623 94.2429 38.0895H88.943C88.5831 37.4602 88.3541 36.3273 88.3541 34.6909C88.3541 31.4811 87.8961 29.2154 84.2974 29.2154H75.955V38.0895L71.0477 38.0895ZM75.955 25.6909H84.4283C87.1437 25.6909 88.6158 24.9042 88.6158 22.3867C88.6158 20.0581 87.0128 19.1455 84.4283 19.1455H75.955V25.6909Z" fill="#212B31"/>
<path d="M97.7248 38.0895V15.621L102.632 15.621V38.0895H97.7248Z" fill="#212B31"/>
<path d="M118.332 29.9707V15.621L123.239 15.621V31.2923C123.239 34.4392 121.833 38.7189 114.537 38.7189C105.606 38.7189 105.508 33.3063 105.508 30.0021H110.415C110.415 32.3308 110.448 35.1944 114.472 35.1944C118.299 35.1944 118.332 32.2364 118.332 29.9707Z" fill="#212B31"/>
<path d="M128.012 38.0895V15.621H132.919V38.0895H128.012Z" fill="#212B31"/>
<path d="M137.692 38.0895V15.621H143.319L157.223 32.4881H157.289V15.621H162V38.0895L156.471 38.0895L142.469 21.2224H142.403V38.0895H137.692Z" fill="#212B31"/>
</svg>
